<svg xmlns="http://www.w3.org/2000/svg" width="639.5078735351562" height="447.2420654296875" viewBox="-329.64508056640625 -168.87815856933594 639.5078735351562 447.2420654296875"><title>Neo4j Graph Visualization</title><desc>Created using Neo4j (http://www.neo4j.com/)</desc><g class="layer relationships"><g class="relationship" transform="translate(-52.91381329184726 249.36387440011927) rotate(250.57600428169803)"><path class="b-outline" fill="#A5ABB6" stroke="none" d="M 25 0.5 L 37.541804937002595 0.5 L 37.541804937002595 -0.5 L 25 -0.5 Z M 99.9084698234772 0.5 L 112.4502747604798 0.5 L 112.4502747604798 3.5 L 119.4502747604798 0 L 112.4502747604798 -3.5 L 112.4502747604798 -0.5 L 99.9084698234772 -0.5 Z"/><text text-anchor="middle" pointer-events="none" font-size="8px" fill="#000000" x="68.7251373802399" y="3" transform="rotate(180 68.7251373802399 0)" font-family="Helvetica Neue, Helvetica, Arial, sans-serif">TALKS_ABOUT</text></g><g class="relationship" transform="translate(129.710965558398 5.749264376950766) rotate(390.827151584287)"><path class="b-outline" fill="#A5ABB6" stroke="none" d="M 25 0.5 L 39.7200384344125 0.5 L 39.7200384344125 -0.5 L 25 -0.5 Z M 102.08670332088711 0.5 L 116.80674175529961 0.5 L 116.80674175529961 3.5 L 123.80674175529961 0 L 116.80674175529961 -3.5 L 116.80674175529961 -0.5 L 102.08670332088711 -0.5 Z"/><text text-anchor="middle" pointer-events="none" font-size="8px" fill="#000000" x="70.9033708776498" y="3" font-family="Helvetica Neue, Helvetica, Arial, sans-serif">TALKS_ABOUT</text></g><g class="relationship" transform="translate(280.8627852646331 -67.54407441423592) rotate(458.8813454996366)"><path class="b-outline" fill="#A5ABB6" stroke="none" d="M 25 0.5 L 44.45707983187455 0.5 L 44.45707983187455 -0.5 L 25 -0.5 Z M 99.907080594814 0.5 L 119.36416042668856 0.5 L 119.36416042668856 3.5 L 126.36416042668856 0 L 119.36416042668856 -3.5 L 119.36416042668856 -0.5 L 99.907080594814 -0.5 Z"/><text text-anchor="middle" pointer-events="none" font-size="8px" fill="#000000" x="72.18208021334428" y="3" transform="rotate(180 72.18208021334428 0)" font-family="Helvetica Neue, Helvetica, Arial, sans-serif">KEEPS_NOW</text></g><g class="relationship" transform="translate(45.78501867164001 -139.87815636721425) rotate(420.0448972460138)"><path class="b-outline" fill="#A5ABB6" stroke="none" d="M 25 0.5 L 48.94003506806615 0.5 L 48.94003506806615 -0.5 L 25 -0.5 Z M 112.1400358310056 0.5 L 136.08007089907176 0.5 L 136.08007089907176 3.5 L 143.08007089907176 0 L 136.08007089907176 -3.5 L 136.08007089907176 -0.5 L 112.1400358310056 -0.5 Z"/><text text-anchor="middle" pointer-events="none" font-size="8px" fill="#000000" x="80.54003544953588" y="3" font-family="Helvetica Neue, Helvetica, Arial, sans-serif">ATTACHED_TO</text></g><g class="relationship" transform="translate(144.88236931316865 -129.90446570333552) rotate(456.38139575657294)"><path class="b-outline" fill="#A5ABB6" stroke="none" d="M 25 0.5 L 33.149735838872985 0.5 L 33.149735838872985 -0.5 L 25 -0.5 Z M 96.34973660181244 0.5 L 104.49947244068542 0.5 L 104.49947244068542 3.5 L 111.49947244068542 0 L 104.49947244068542 -3.5 L 104.49947244068542 -0.5 L 96.34973660181244 -0.5 Z"/><text text-anchor="middle" pointer-events="none" font-size="8px" fill="#000000" x="64.74973622034271" y="3" transform="rotate(180 64.74973622034271 0)" font-family="Helvetica Neue, Helvetica, Arial, sans-serif">ATTACHED_TO</text></g><g class="relationship" transform="translate(144.88236931316865 -129.90446570333552) rotate(384.6361107660351)"><path class="b-outline" fill="#A5ABB6" stroke="none" d="M 25 0.5 L 38.15721714225393 0.5 L 38.15721714225393 -0.5 L 25 -0.5 Z M 104.44054996696096 0.5 L 117.59776710921489 0.5 L 117.59776710921489 3.5 L 124.59776710921489 0 L 117.59776710921489 -3.5 L 117.59776710921489 -0.5 L 104.44054996696096 -0.5 Z"/><text text-anchor="middle" pointer-events="none" font-size="8px" fill="#000000" x="71.29888355460744" y="3" font-family="Helvetica Neue, Helvetica, Arial, sans-serif">HAS_INFO_FOR</text></g><g class="relationship" transform="translate(-300.6450898085665 -54.77414004979929) rotate(429.31801770083666)"><path class="b-outline" fill="#A5ABB6" stroke="none" d="M 25 0.5 L 43.81261378861721 0.5 L 43.81261378861721 -0.5 L 25 -0.5 Z M 95.52928096391018 0.5 L 114.3418947525274 0.5 L 114.3418947525274 3.5 L 121.3418947525274 0 L 114.3418947525274 -3.5 L 114.3418947525274 -0.5 L 95.52928096391018 -0.5 Z"/><text text-anchor="middle" pointer-events="none" font-size="8px" fill="#000000" x="69.6709473762637" y="3" font-family="Helvetica Neue, Helvetica, Arial, sans-serif">TRAVELLED</text></g><g class="relationship" transform="translate(8.111281482339608 -8.968878919262883) rotate(286.05502914516904)"><path class="b-outline" fill="#A5ABB6" stroke="none" d="M 25 0.5 L 43.03621232960717 0.5 L 43.03621232960717 -0.5 L 25 -0.5 Z M 86.18621385548607 0.5 L 104.22242618509324 0.5 L 104.22242618509324 3.5 L 111.22242618509324 0 L 104.22242618509324 -3.5 L 104.22242618509324 -0.5 L 86.18621385548607 -0.5 Z"/><text text-anchor="middle" pointer-events="none" font-size="8px" fill="#000000" x="64.61121309254662" y="3" font-family="Helvetica Neue, Helvetica, Arial, sans-serif">CREATED</text></g><g class="relationship" transform="translate(8.111281482339608 -8.968878919262883) rotate(318.51627683752565)"><path class="b-outline" fill="#A5ABB6" stroke="none" d="M 25 0.5 L 66.20991942823494 0.5 L 66.20991942823494 -0.5 L 25 -0.5 Z M 109.35992095411385 0.5 L 150.5698403823488 0.5 L 150.5698403823488 3.5 L 157.5698403823488 0 L 150.5698403823488 -3.5 L 150.5698403823488 -0.5 L 109.35992095411385 -0.5 Z"/><text text-anchor="middle" pointer-events="none" font-size="8px" fill="#000000" x="87.7849201911744" y="3" font-family="Helvetica Neue, Helvetica, Arial, sans-serif">CREATED</text></g><g class="relationship" transform="translate(8.111281482339608 -8.968878919262883) rotate(491.7711103245806)"><path class="b-outline" fill="#A5ABB6" stroke="none" d="M 25 0.5 L 54.97649900178321 0.5 L 54.97649900178321 -0.5 L 25 -0.5 Z M 101.74316541413673 0.5 L 131.71966441591994 0.5 L 131.71966441591994 3.5 L 138.71966441591994 0 L 131.71966441591994 -3.5 L 131.71966441591994 -0.5 L 101.74316541413673 -0.5 Z"/><text text-anchor="middle" pointer-events="none" font-size="8px" fill="#000000" x="78.35983220795997" y="3" transform="rotate(180 78.35983220795997 0)" font-family="Helvetica Neue, Helvetica, Arial, sans-serif">HAS_NOW</text></g><g class="relationship" transform="translate(-248.95996299477127 82.13677195505775) rotate(371.8288869366034)"><path class="b-outline" fill="#A5ABB6" stroke="none" d="M 25 0.5 L 58.03480036035582 0.5 L 58.03480036035582 -0.5 L 25 -0.5 Z M 86.18479997888609 0.5 L 119.21960033924191 0.5 L 119.21960033924191 3.5 L 126.21960033924191 0 L 119.21960033924191 -3.5 L 119.21960033924191 -0.5 L 86.18479997888609 -0.5 Z"/><text text-anchor="middle" pointer-events="none" font-size="8px" fill="#000000" x="72.10980016962095" y="3" font-family="Helvetica Neue, Helvetica, Arial, sans-serif">USED</text></g></g><g class="layer nodes"><g class="node" aria-label="graph-node0" transform="translate(-52.91381329184726,249.36387440011927)"><circle class="b-outline" cx="0" cy="0" r="25" fill="#D9C8AE" stroke="#c0a378" stroke-width="2px"/><text class="caption" text-anchor="middle" pointer-events="none" x="0" y="5" font-size="10px" fill="#2A2C34" font-family="Helvetica Neue, Helvetica, Arial, sans-serif"> 100</text></g><g class="node" aria-label="graph-node1" transform="translate(257.4938669318401,82.00525763920913)"><circle class="b-outline" cx="0" cy="0" r="25" fill="#57C7E3" stroke="#23b3d7" stroke-width="2px"/><text class="caption" text-anchor="middle" pointer-events="none" x="0" y="5" font-size="10px" fill="#2A2C34" font-family="Helvetica Neue, Helvetica, Arial, sans-serif"> 2</text></g><g class="node" aria-label="graph-node2" transform="translate(129.710965558398,5.749264376950766)"><circle class="b-outline" cx="0" cy="0" r="25" fill="#D9C8AE" stroke="#c0a378" stroke-width="2px"/><text class="caption" text-anchor="middle" pointer-events="none" x="0" y="5" font-size="10px" fill="#2A2C34" font-family="Helvetica Neue, Helvetica, Arial, sans-serif"> 98</text></g><g class="node" aria-label="graph-node3" transform="translate(280.8627852646331,-67.54407441423592)"><circle class="b-outline" cx="0" cy="0" r="25" fill="#8DCC93" stroke="#5db665" stroke-width="2px"/><text class="caption" text-anchor="middle" pointer-events="none" x="0" y="5" font-size="10px" fill="#2A2C34" font-family="Helvetica Neue, Helvetica, Arial, sans-serif"> 1</text></g><g class="node" aria-label="graph-node4" transform="translate(45.78501867164001,-139.87815636721425)"><circle class="b-outline" cx="0" cy="0" r="25" fill="#ECB5C9" stroke="#da7298" stroke-width="2px"/><text class="caption" text-anchor="middle" pointer-events="none" x="0" y="5" font-size="10px" fill="#2A2C34" font-family="Helvetica Neue, Helvetica, Arial, sans-serif"> it is ok</text></g><g class="node" aria-label="graph-node5" transform="translate(144.88236931316865,-129.90446570333552)"><circle class="b-outline" cx="0" cy="0" r="25" fill="#4C8EDA" stroke="#2870c2" stroke-width="2px"/><text class="caption" text-anchor="middle" pointer-events="none" x="0" y="5" font-size="10px" fill="#FFFFFF" font-family="Helvetica Neue, Helvetica, Arial, sans-serif"> 0</text></g><g class="node" aria-label="graph-node6" transform="translate(-300.6450898085665,-54.77414004979929)"><circle class="b-outline" cx="0" cy="0" r="25" fill="#C990C0" stroke="#b261a5" stroke-width="2px"/><text class="caption" text-anchor="middle" pointer-events="none" x="0" y="5" font-size="10px" fill="#FFFFFF" font-family="Helvetica Neue, Helvetica, Arial, sans-serif"> Pavel</text></g><g class="node" aria-label="graph-node7" transform="translate(8.111281482339608,-8.968878919262883)"><circle class="b-outline" cx="0" cy="0" r="25" fill="#C990C0" stroke="#b261a5" stroke-width="2px"/><text class="caption" text-anchor="middle" pointer-events="none" x="0" y="5" font-size="10px" fill="#FFFFFF" font-family="Helvetica Neue, Helvetica, Arial, sans-serif"> Sergey</text></g><g class="node" aria-label="graph-node8" transform="translate(-248.95996299477127,82.13677195505775)"><circle class="b-outline" cx="0" cy="0" r="25" fill="#F79767" stroke="#f36924" stroke-width="2px"/><text class="caption" text-anchor="middle" pointer-events="none" x="0" y="5" font-size="10px" fill="#FFFFFF" font-family="Helvetica Neue, Helvetica, Arial, sans-serif"> 0</text></g><g class="node" aria-label="graph-node9" transform="translate(-164.06023301534037,-74.8510776819665)"><circle class="b-outline" cx="0" cy="0" r="25" fill="#FFC454" stroke="#d7a013" stroke-width="2px"/><text class="caption" text-anchor="middle" pointer-events="none" x="0" y="5" font-size="10px" fill="#2A2C34" font-family="Helvetica Neue, Helvetica, Arial, sans-serif"> Saint-P…</text></g><g class="node" aria-label="graph-node11" transform="translate(-100.95163741805537,113.13520879850071)"><circle class="b-outline" cx="0" cy="0" r="25" fill="#57C7E3" stroke="#23b3d7" stroke-width="2px"/><text class="caption" text-anchor="middle" pointer-events="none" x="0" y="5" font-size="10px" fill="#2A2C34" font-family="Helvetica Neue, Helvetica, Arial, sans-serif"> 1</text></g></g></svg>